<?xml version="1.0" encoding="UTF-8"?>
<svg version="1.1" xmlns="http://www.w3.org/2000/svg" width="396" height="389">
<path d="M0 0 C1.02939066 -0.0089521 2.05878132 -0.01790419 3.11936563 -0.02712756 C6.55691909 -0.04727433 9.99143819 -0.01040634 13.42881775 0.02641296 C15.89824511 0.02375721 18.36767082 0.01762126 20.83708191 0.00827026 C26.84264241 -0.00526924 32.84702403 0.01817921 38.85237754 0.05869649 C45.85814512 0.10428752 52.86373517 0.10693009 59.86962705 0.10775509 C72.38222641 0.1106287 84.8944138 0.15137047 97.40684509 0.21391296 C109.52082167 0.27442207 121.63451358 0.30992477 133.74864197 0.31645203 C134.86633254 0.31706039 134.86633254 0.31706039 136.00660271 0.31768105 C136.75049582 0.31807935 137.49438894 0.31847764 138.26082426 0.31888801 C139.75896872 0.31969394 141.25711316 0.32050858 142.75525761 0.32133198 C143.86377638 0.32193423 143.86377638 0.32193423 144.99468947 0.32254865 C156.57180598 0.32984509 168.14887832 0.35967 179.72594814 0.39195562 C183.90685216 0.40336347 188.08774833 0.41160997 192.26866353 0.4175391 C199.53396673 0.42797389 206.79900562 0.45398129 214.06420898 0.49655342 C216.46866855 0.50844093 218.87315855 0.51541671 221.27764702 0.51694107 C233.72951403 0.5284163 245.44356584 0.79799662 257.53404236 3.98222351 C258.31590943 4.1740688 259.09777651 4.3659141 259.90333652 4.56357288 C286.44409705 11.40577043 309.66041655 28.64256308 324.57701111 51.63066101 C340.25111099 78.47373026 347.09986077 109.17544573 339.46763611 140.03300476 C338.05957961 144.48104935 336.43556795 148.72018339 334.53404236 152.98222351 C329.58404236 152.98222351 324.63404236 152.98222351 319.53404236 152.98222351 C320.60498833 147.98447567 321.77224088 143.0306194 323.05552673 138.08256531 C324.68749081 131.74692139 326.2545871 125.54334695 326.53404236 118.98222351 C326.5740033 118.18300476 326.61396423 117.38378601 326.65513611 116.56034851 C327.29914853 90.95138397 319.37559495 68.16639807 302.53404236 48.98222351 C301.61945251 47.76212585 301.61945251 47.76212585 300.68638611 46.51737976 C298.03529045 43.39476436 295.08822308 41.02749981 291.84654236 38.54472351 C291.21933289 38.06172791 290.59212341 37.5787323 289.94590759 37.08110046 C288.14833831 35.7061347 286.34225533 34.3431417 284.53404236 32.98222351 C283.74513611 32.37636414 282.95622986 31.77050476 282.14341736 31.14628601 C267.14287905 20.325287 248.28044263 16.84317351 230.18856812 16.82400513 C228.68245322 16.81659816 228.68245322 16.81659816 227.14591175 16.80904156 C223.80190152 16.79375793 220.45791034 16.78533085 217.11387634 16.77690125 C214.70863682 16.76731553 212.30339897 16.75730505 209.89816284 16.74690247 C204.05799812 16.72272 198.21783061 16.70295039 192.37764322 16.68514972 C185.57827531 16.66418566 178.77893197 16.63774509 171.97958482 16.61097825 C159.85541558 16.56339364 147.731235 16.52010492 135.60704041 16.47953796 C123.83391945 16.44013644 112.06080861 16.39868811 100.28770447 16.35453796 C99.55384571 16.35178846 98.81998695 16.34903895 98.06389004 16.34620613 C91.67974372 16.32226932 85.29559798 16.29817809 78.91145229 16.27407169 C51.45233517 16.17058664 23.99319312 16.07723787 -3.46595764 15.98222351 C-3.79595764 61.19222351 -4.12595764 106.40222351 -4.46595764 152.98222351 C-8.42595764 154.96222351 -8.42595764 154.96222351 -12.46595764 156.98222351 C-13.80771737 157.97088857 -15.14491766 158.96603891 -16.46595764 159.98222351 C-17.12595764 159.98222351 -17.78595764 159.98222351 -18.46595764 159.98222351 C-18.65298182 140.43260997 -18.79398226 120.88317838 -18.88045502 101.33285522 C-18.92167631 92.25489873 -18.97785751 83.17749862 -19.06947327 74.09989929 C-19.14930384 66.18623159 -19.20084513 58.27296688 -19.2186656 50.3589077 C-19.22908021 46.16964696 -19.25348868 41.98153893 -19.3117981 37.79264832 C-19.3662893 33.84590597 -19.38281363 29.90078573 -19.37081909 25.95370293 C-19.37301173 24.50889695 -19.38881722 23.06403417 -19.41960144 21.61955452 C-19.45972264 19.63904191 -19.44499213 17.65764961 -19.42799377 15.67680359 C-19.43536812 14.57065201 -19.44274246 13.46450043 -19.45034027 12.3248291 C-16.58907336 2.60900672 -9.35155211 -0.20904955 0 0 Z " fill="#FBFCFD" transform="translate(35.46595764160156,13.017776489257813)"/>
<path d="M0 0 C1.74833919 -0.00293891 3.49667551 -0.008918 5.24499512 -0.0177002 C9.98314823 -0.03250227 14.72013115 -0.00372667 19.45812249 0.03373289 C24.42487557 0.06640793 29.39160345 0.0616409 34.35844421 0.06167603 C42.70189075 0.06723847 51.04489014 0.09953736 59.38818359 0.14941406 C69.01815442 0.20681515 78.64769841 0.22972527 88.27783042 0.23229825 C98.54806472 0.23522945 108.81814304 0.26107249 119.08831763 0.29486513 C122.0385336 0.30320253 124.98873389 0.30756431 127.93895912 0.31113815 C132.58728345 0.3180769 137.23529111 0.34061331 141.88349152 0.37490845 C143.58374679 0.38521366 145.28404082 0.39057218 146.98432732 0.39046097 C159.430469 0.39459713 169.58258671 1.38864294 179.93237305 8.84228516 C180.94299805 9.54353516 181.95362305 10.24478516 182.99487305 10.96728516 C190.78047574 17.68636693 194.91039045 27.55651142 195.68237305 37.59228516 C196.31803549 48.79877868 194.10167198 58.83472153 186.61987305 67.52978516 C185.28956055 68.67447266 185.28956055 68.67447266 183.93237305 69.84228516 C183.35745117 70.40689453 182.7825293 70.97150391 182.19018555 71.55322266 C181.54823242 72.16423828 180.9062793 72.77525391 180.24487305 73.40478516 C179.37282227 74.24203125 179.37282227 74.24203125 178.4831543 75.09619141 C168.88946357 81.66338858 158.85800888 81.4461823 147.67456055 81.45166016 C145.91763806 81.46666298 144.16072956 81.48339449 142.40383911 81.50177002 C137.81066187 81.54522011 133.21767482 81.56539272 128.62432861 81.58050537 C123.92481342 81.60015754 119.22550121 81.64211812 114.52612305 81.68212891 C105.32826934 81.7571886 96.1304616 81.80762633 86.93237305 81.84228516 C85.66999574 79.31753054 85.833809 77.5302805 85.86987305 74.71728516 C85.87889648 73.80720703 85.88791992 72.89712891 85.8972168 71.95947266 C85.90881836 71.26080078 85.92041992 70.56212891 85.93237305 69.84228516 C82.1328784 71.10878337 81.82589636 72.3428431 79.93237305 75.77978516 C78.0651209 79.15931703 77.20145122 80.66289971 73.93237305 82.84228516 C71.48600769 83.12989807 71.48600769 83.12989807 68.54638672 83.18041992 C67.44481735 83.2028627 66.34324799 83.22530548 65.20829773 83.24842834 C64.01767227 83.26006516 62.82704681 83.27170197 61.6003418 83.28369141 C59.76358635 83.30434914 59.76358635 83.30434914 57.88972473 83.32542419 C55.29648367 83.34871625 52.70318249 83.3659714 50.10986328 83.37768555 C46.14529054 83.40461252 42.1833831 83.47951095 38.21948242 83.55517578 C35.70062018 83.57183245 33.18173684 83.58559909 30.6628418 83.59619141 C29.47828903 83.6260463 28.29373627 83.65590118 27.07328796 83.68666077 C19.03056296 83.64375758 19.03056296 83.64375758 15.89273071 81.35372925 C14.34739759 79.58569023 13.1278499 77.85938582 11.93237305 75.84228516 C11.16380932 74.69492826 10.39315585 73.54896685 9.61987305 72.40478516 C8.78456055 71.13634766 8.78456055 71.13634766 7.93237305 69.84228516 C7.60237305 69.84228516 7.27237305 69.84228516 6.93237305 69.84228516 C6.89499023 70.61314453 6.85760742 71.38400391 6.8190918 72.17822266 C6.75334961 73.18111328 6.68760742 74.18400391 6.61987305 75.21728516 C6.56186523 76.21501953 6.50385742 77.21275391 6.4440918 78.24072266 C6.27522461 79.09923828 6.10635742 79.95775391 5.93237305 80.84228516 C0.48775705 84.47202915 -5.67991439 84.39773842 -12.06762695 83.84228516 C-16.97063444 82.14509026 -21.39263868 79.37534384 -24.06762695 74.84228516 C-24.99431349 69.86385314 -24.93762513 64.89312818 -24.8996582 59.84619141 C-24.90624762 58.36937165 -24.91446808 56.89255835 -24.92424011 55.41575623 C-24.9375681 52.32636071 -24.92879764 49.23800502 -24.90478516 46.14868164 C-24.87621636 42.20252797 -24.90624795 38.25936356 -24.95341969 34.31347752 C-24.98270782 31.26510733 -24.97885338 28.21744357 -24.96539879 25.16898918 C-24.96325494 23.71501268 -24.97166597 22.26097863 -24.99112892 20.80713081 C-25.01382028 18.76701258 -24.9912391 16.73200536 -24.95751953 14.69213867 C-24.95496658 13.53553238 -24.95241364 12.37892609 -24.94978333 11.18727112 C-23.89255078 7.17842627 -22.71498575 4.99320294 -19.64075184 2.21620464 C-13.74874275 -0.92983236 -6.51079485 -0.08412177 0 0 Z M-7.06762695 16.84228516 C-7.23643158 18.57667954 -7.40201311 20.31138778 -7.56626892 22.04621887 C-7.65882934 23.01219907 -7.75138975 23.97817926 -7.84675503 24.97343159 C-8.16253458 29.07501802 -8.08991517 33.12177432 -7.9465332 37.22900391 C-7.92292221 38.05688919 -7.89931122 38.88477448 -7.87498474 39.73774719 C-7.79951346 42.33532083 -7.71500227 44.93250361 -7.63012695 47.52978516 C-7.57678896 49.31036614 -7.52404981 51.09096516 -7.47192383 52.87158203 C-7.34516637 57.19541977 -7.20696234 61.51883695 -7.06762695 65.84228516 C3.61524854 66.62105633 14.24312843 66.99142054 24.95581055 66.97509766 C26.48045888 66.97633176 28.00510697 66.97790356 29.52975464 66.9797821 C34.45564655 66.98364551 39.38149007 66.97617768 44.30737305 66.96728516 C46.01534017 66.96470961 47.72330729 66.96213598 49.43127441 66.95956421 C59.21814465 66.94324849 69.00491628 66.91255139 78.79171753 66.87273121 C84.19214439 66.85116127 89.59254217 66.83569616 94.99300194 66.82540512 C103.61168007 66.80893519 112.22992459 66.77481607 120.84836388 66.70698166 C124.89960888 66.67526658 128.95051623 66.65115633 133.00189209 66.64727783 C136.79997685 66.64307482 140.59716129 66.61501795 144.39496231 66.56897926 C146.43288939 66.55003774 148.47099658 66.5551445 150.50900269 66.561203 C159.16005872 66.42332616 166.28214007 65.09706554 172.83453369 59.10188293 C177.62147803 54.00546659 180.05810002 48.53263045 180.43237305 41.52978516 C180.2150947 34.65245302 177.82834286 29.17405625 173.32299805 23.99072266 C164.70694405 15.96751641 154.78352704 16.42173806 143.6940918 16.50170898 C142.04761267 16.5025561 140.4011324 16.50207847 138.75465393 16.50038147 C134.30269006 16.49952338 129.8509704 16.51711884 125.39906311 16.53810334 C120.73993174 16.55690131 116.0807943 16.55862304 111.42163086 16.56217957 C102.60680924 16.57149087 93.79209969 16.59609227 84.97732735 16.62622803 C74.93865457 16.65980053 64.89997634 16.67626521 54.86126137 16.69131434 C34.21823612 16.72264264 13.57531166 16.77538533 -7.06762695 16.84228516 Z " fill="#FBFCFD" transform="translate(111.067626953125,84.15771484375)"/>
<path d="M0 0 C0.67127832 35.47447717 -4.96641586 65.23722715 -30.39428711 91.86962891 C-37.33194582 98.89646968 -44.46965675 104.96051405 -53 110 C-53.65758301 110.38913574 -54.31516602 110.77827148 -54.99267578 111.17919922 C-78.24591948 124.69100054 -102.49518628 126.45029504 -128.90917969 126.4675293 C-131.34247429 126.47981077 -133.77576319 126.49326776 -136.20904541 126.50779724 C-142.7536422 126.54252523 -149.2981674 126.55811224 -155.84284115 126.56763434 C-159.93762997 126.57370041 -164.03239817 126.58447679 -168.12717438 126.59613991 C-179.49600189 126.62780886 -190.86481141 126.65456582 -202.23368454 126.66089153 C-202.95693722 126.66129867 -203.6801899 126.6617058 -204.42535932 126.66212528 C-205.8909831 126.66293288 -207.35660688 126.6637386 -208.82223067 126.66454246 C-209.91327824 126.66515083 -209.91327824 126.66515083 -211.02636719 126.66577148 C-211.75463114 126.66617346 -212.48289509 126.66657544 -213.23322764 126.6669896 C-225.07343308 126.67450406 -236.91318714 126.7191318 -248.75322899 126.7796289 C-260.94901654 126.84143904 -273.14457854 126.87325067 -285.34052587 126.87471896 C-292.1728791 126.87621749 -299.00467139 126.89035601 -305.83687592 126.93753624 C-312.24929808 126.98164095 -318.66091515 126.98460023 -325.07344818 126.95974159 C-327.42446482 126.95715289 -329.77554246 126.96822877 -332.12641907 126.99401855 C-335.33808461 127.02713647 -338.54588291 127.01081858 -341.75750732 126.98222351 C-342.68551738 127.00347988 -343.61352743 127.02473626 -344.56965899 127.04663676 C-349.8760721 126.93788456 -352.66532071 125.94784414 -356.58002853 122.27397633 C-360.34448976 118.31821302 -360.93566569 115.00097499 -360.99536133 109.64312744 C-360.96659912 108.58720398 -360.93783691 107.53128052 -360.90820312 106.44335938 C-360.90937134 105.31077698 -360.91053955 104.17819458 -360.91174316 103.0112915 C-360.90619309 99.28750708 -360.84407771 95.56697113 -360.78125 91.84375 C-360.76632075 89.25445302 -360.75493697 86.66513336 -360.74694824 84.07580566 C-360.71958006 77.96974942 -360.65661008 71.86502317 -360.57615232 65.75946665 C-360.48650298 58.80431744 -360.44269009 51.84911086 -360.40258884 44.89352703 C-360.31913364 30.59506581 -360.17856498 16.29757405 -360 2 C-355.16284043 4.40386861 -350.49975277 7.00016482 -346 10 C-345.61523914 11.82345009 -345.61523914 11.82345009 -345.60127258 14.07485962 C-345.58873444 14.92743851 -345.57619629 15.7800174 -345.5632782 16.65843201 C-345.56471329 17.59566605 -345.56614838 18.53290009 -345.56762695 19.49853516 C-345.5574353 20.48393784 -345.54724365 21.46934052 -345.53674316 22.48460388 C-345.50646653 25.75281348 -345.4973248 29.02073073 -345.48828125 32.2890625 C-345.47144545 34.55065903 -345.45329672 36.81224614 -345.43388367 39.07382202 C-345.38625829 45.03488217 -345.35653007 50.99590414 -345.33044434 56.95709229 C-345.30070196 63.03657576 -345.25415003 69.1159275 -345.20898438 75.1953125 C-345.12280865 87.13013961 -345.05552695 99.06499372 -345 111 C-314.20515503 110.94077421 -283.41038913 110.86635924 -252.61563665 110.77101372 C-248.97235511 110.75974681 -245.32907319 110.74860815 -241.68579102 110.73754883 C-240.59791493 110.7342433 -240.59791493 110.7342433 -239.48806154 110.730871 C-227.77574477 110.69558817 -216.06342805 110.67067331 -204.35107798 110.64965298 C-192.31519159 110.62781883 -180.2793736 110.59469688 -168.24354547 110.55129844 C-161.49076059 110.52726791 -154.73804337 110.50829033 -147.98521614 110.50238609 C-141.618317 110.49630571 -135.25161042 110.4761996 -128.88478279 110.44572449 C-126.5585667 110.43699144 -124.2323254 110.43321176 -121.9060936 110.43499184 C-105.99970799 110.44331435 -89.97361804 110.11728394 -75 104.0625 C-74.26563721 103.76875488 -73.53127441 103.47500977 -72.7746582 103.17236328 C-49.71146029 93.3560358 -31.08309338 73.32747953 -21.2421875 50.4765625 C-18.08383089 41.63713678 -16.07625372 32.59331277 -15.69921875 23.203125 C-15.07526822 8.28861508 -15.07526822 8.28861508 -11.5390625 4.05078125 C-7.66681182 1.5455062 -4.646849 0 0 0 Z " fill="#FCFDFD" transform="translate(377,249)"/>
<path d="M0 0 C3.05080946 3.05080946 2.35788708 6.62810779 2.4140625 10.7265625 C2.43342865 11.58937836 2.4527948 12.45219421 2.4727478 13.34115601 C2.53262204 16.10233616 2.57895998 18.86355784 2.625 21.625 C2.66317259 23.49481005 2.70222389 25.36460238 2.7421875 27.234375 C2.83832992 31.82277309 2.92233166 36.41125351 3 41 C24.73170642 41.11692693 46.46336079 41.20503406 68.19531822 41.25906086 C78.28640651 41.28481594 88.37729908 41.31991487 98.46826172 41.37719727 C107.26603538 41.42711483 116.06366724 41.45931061 124.86157858 41.47044247 C129.5178258 41.4769471 134.17366746 41.49217837 138.82978439 41.52865028 C143.21783329 41.56274193 147.60531192 41.57302657 151.99348068 41.56553841 C153.59864406 41.5669071 155.20382771 41.57676112 156.80887604 41.59602737 C165.71240857 41.69760412 173.58552304 41.52372519 181 36 C187.7083017 29.10934796 190.16141239 21.39218119 191 12 C195.62 12 200.24 12 205 12 C207.31696368 22.65803291 203.57970254 31.91048458 198 41 C195.90529997 43.70106056 193.66209369 45.86375198 191 48 C190.33226562 48.54398437 189.66453125 49.08796875 188.9765625 49.6484375 C178.159349 57.65395652 165.46106611 57.44608268 152.57666016 57.41992188 C150.85065161 57.42727566 149.12464796 57.43586567 147.39865112 57.44558716 C142.74617049 57.46765928 138.09386767 57.47074156 133.44134188 57.46883965 C129.54926545 57.46871943 125.65722602 57.47730324 121.76515996 57.48561716 C112.58641581 57.50479472 103.4077626 57.50775362 94.22900391 57.50097656 C84.7674891 57.49431972 75.30636253 57.51727898 65.84492648 57.55429029 C57.70535719 57.58497232 49.56591302 57.59634956 41.42628706 57.59245348 C36.57143186 57.59038672 31.71687987 57.59585616 26.86207962 57.62034607 C22.3031023 57.64258965 17.74475966 57.64075556 13.18577957 57.62041855 C11.51445015 57.61700574 9.84307812 57.62210932 8.17180634 57.63640213 C5.88793658 57.65458584 3.60622306 57.64185629 1.32241821 57.62145996 C-0.5927337 57.62252872 -0.5927337 57.62252872 -2.54657555 57.62361908 C-7.5260183 56.72443175 -10.29450077 54.26306628 -13.35839844 50.19750977 C-14.35700624 46.77724004 -14.28450157 43.37133598 -14.265625 39.83984375 C-14.26753845 39.05356094 -14.2694519 38.26727814 -14.27142334 37.45716858 C-14.27278161 35.79883503 -14.26911019 34.14049073 -14.26074219 32.48217773 C-14.25002303 29.94295432 -14.2606567 27.40443606 -14.2734375 24.86523438 C-14.27211612 23.25260261 -14.26955418 21.63997127 -14.265625 20.02734375 C-14.26967346 19.26791977 -14.27372192 18.50849579 -14.27789307 17.72605896 C-14.24422005 13.94653157 -14.14864654 12.22296982 -12 9 C-10.28040704 8.02664549 -8.55915307 7.05572488 -6.8203125 6.1171875 C-4.09301315 4.44335142 -2.15599604 2.35199568 0 0 Z " fill="#FCFDFE" transform="translate(101,247)"/>
<path d="M0 0 C0.84122406 -0.00945648 1.68244812 -0.01891296 2.54916382 -0.02865601 C3.90082138 -0.01954697 3.90082138 -0.01954697 5.27978516 -0.01025391 C6.21432526 -0.01312408 7.14886536 -0.01599426 8.11172485 -0.01895142 C10.08702195 -0.0209911 12.0623393 -0.01546795 14.03759766 -0.00292969 C17.05108212 0.01308916 20.06321803 -0.00276307 23.07666016 -0.02197266 C24.9985381 -0.0199895 26.92041521 -0.01614433 28.84228516 -0.01025391 C29.73934174 -0.0163266 30.63639832 -0.02239929 31.56063843 -0.02865601 C36.68603521 0.02853172 40.26213843 0.52926478 44.69384766 3.38818359 C49.27781296 8.34382176 49.93267979 12.17702042 49.95166016 18.69677734 C49.68197359 21.51214161 48.94255994 23.49645422 47.81884766 26.07568359 C46.89754839 28.23082831 46.89754839 28.23082831 46.69384766 30.38818359 C47.90979215 32.56174005 49.3482472 34.04310382 51.11962891 35.78662109 C54.59344102 39.32077237 54.84037224 43.59909846 55.06884766 48.32568359 C54.95242939 53.47913233 53.79737967 56.27810066 50.69384766 60.38818359 C47.16387444 62.93281998 44.71470357 63.76496773 40.38452148 63.77636719 C39.35027542 63.78582367 38.31602936 63.79528015 37.2504425 63.80502319 C36.14508652 63.7989505 35.03973053 63.79287781 33.90087891 63.78662109 C32.75850266 63.78949127 31.6161264 63.79236145 30.43913269 63.7953186 C28.02932234 63.79735716 25.61949536 63.79184194 23.2097168 63.77929688 C19.50939285 63.76319684 15.81015394 63.77917626 12.10986328 63.79833984 C9.76936607 63.79635825 7.42886953 63.7925163 5.08837891 63.78662109 C3.42123589 63.79573013 3.42123589 63.79573013 1.72041321 63.80502319 C0.69562363 63.79556671 -0.32916595 63.78611023 -1.38500977 63.77636719 C-2.74138802 63.77278702 -2.74138802 63.77278702 -4.12516785 63.76913452 C-4.84489273 63.64342072 -5.56461761 63.51770691 -6.30615234 63.38818359 C-8.55876345 60.00926694 -8.56638836 58.82379434 -8.59667969 54.86279297 C-8.60943939 53.73151978 -8.6221991 52.60024658 -8.63534546 51.43469238 C-8.63757111 50.21278198 -8.63979675 48.99087158 -8.64208984 47.73193359 C-8.64874664 46.4781189 -8.65540344 45.2243042 -8.66226196 43.93249512 C-8.67239507 41.27939669 -8.67794307 38.62670801 -8.67675781 35.97363281 C-8.67655433 32.57366915 -8.70388684 29.17453862 -8.73830223 25.77477264 C-8.76587701 22.53135715 -8.76471908 19.28795047 -8.76708984 16.04443359 C-8.78146088 14.82252319 -8.79583191 13.60061279 -8.81063843 12.3416748 C-8.80448517 11.21040161 -8.79833191 10.07912842 -8.79199219 8.91357422 C-8.79626724 7.41824158 -8.79626724 7.41824158 -8.80062866 5.8927002 C-8.30615234 3.38818359 -8.30615234 3.38818359 -6.54492188 1.56710815 C-4.12126333 0.29082199 -2.71794951 0.00880317 0 0 Z M4.69384766 12.38818359 C4.69384766 25.58818359 4.69384766 38.78818359 4.69384766 52.38818359 C10.61322266 52.40880859 16.53259766 52.42943359 22.63134766 52.45068359 C24.50169678 52.4597876 26.3720459 52.4688916 28.29907227 52.47827148 C29.77311125 52.48119069 31.24715103 52.48373923 32.72119141 52.48583984 C33.49338013 52.49095581 34.26556885 52.49607178 35.06115723 52.50134277 C36.93909953 52.50165333 38.81694019 52.45051928 40.69384766 52.38818359 C42.0599178 51.2390439 42.0599178 51.2390439 41.94384766 48.13818359 C41.68223489 44.21399217 41.0515417 42.47132196 38.69384766 39.38818359 C35.79460399 37.93856176 33.17084411 38.16691878 29.93603516 38.07177734 C29.2729837 38.05099625 28.60993225 38.03021515 27.92678833 38.00880432 C25.80758071 37.94339129 23.68824866 37.88446254 21.56884766 37.82568359 C20.13263684 37.7824905 18.69643864 37.73887595 17.26025391 37.69482422 C13.73825172 37.5877186 10.21610941 37.48642785 6.69384766 37.38818359 C7.02384766 34.08818359 7.35384766 30.78818359 7.69384766 27.38818359 C10.09730469 27.34951172 10.09730469 27.34951172 12.54931641 27.31005859 C14.66002056 27.25377315 16.77069659 27.19642591 18.88134766 27.13818359 C19.93644531 27.12400391 20.99154297 27.10982422 22.07861328 27.09521484 C28.28160482 26.93114404 28.28160482 26.93114404 33.86962891 24.46630859 C37.72775016 20.07118974 36.69384766 19.52058888 36.69384766 12.38818359 C26.13384766 12.38818359 15.57384766 12.38818359 4.69384766 12.38818359 Z " fill="#FAFCFC" transform="translate(37.30615234375,179.61181640625)"/>
<path d="M0 0 C5.06068107 1.85146868 7.42480248 7.19807227 9.98828125 11.69140625 C10.93670898 13.3455957 10.93670898 13.3455957 11.90429688 15.03320312 C12.55462891 16.17724609 13.20496094 17.32128906 13.875 18.5 C15.79971868 21.86582994 17.7252384 25.23117348 19.65478516 28.59423828 C20.94847145 30.86141772 22.22900959 33.13614089 23.49755859 35.41748047 C24.11066895 36.50561035 24.7237793 37.59374023 25.35546875 38.71484375 C26.17374146 40.18618774 26.17374146 40.18618774 27.00854492 41.68725586 C28.42960288 44.22705603 28.42960288 44.22705603 31.5625 44.9375 C31.83707031 44.21473877 32.11164063 43.49197754 32.39453125 42.74731445 C33.52418961 40.02966435 34.80675898 37.54345721 36.25 34.98046875 C36.77907959 34.03961426 37.30815918 33.09875977 37.85327148 32.12939453 C40.18206545 28.03595951 42.51751284 23.94663685 44.87158203 19.86767578 C45.93774467 18.02013261 46.99927073 16.16989867 48.05419922 14.31591797 C49.34833053 12.05153174 50.66828694 9.80493127 52 7.5625 C52.37576172 6.89758545 52.75152344 6.2326709 53.13867188 5.54760742 C55.004123 2.48005894 56.20686381 1.07389586 59.59765625 -0.2265625 C62.5625 -0.0625 62.5625 -0.0625 64.71942139 1.58087158 C67.03851231 4.54614693 67.04851178 6.07412134 67.01660156 9.80761719 C67.01629944 10.98853943 67.01599731 12.16946167 67.01568604 13.38616943 C66.99504089 14.65607727 66.97439575 15.92598511 66.953125 17.234375 C66.94746521 18.53828186 66.94180542 19.84218872 66.93597412 21.18560791 C66.92073338 24.64482523 66.88146662 28.10336606 66.8371582 31.56231689 C66.79617087 35.09483693 66.77795582 38.62746674 66.7578125 42.16015625 C66.71496951 49.08624268 66.64463328 56.01176918 66.5625 62.9375 C62.6025 62.9375 58.6425 62.9375 54.5625 62.9375 C54.5625 52.3775 54.5625 41.8175 54.5625 30.9375 C51.79777623 33.70222377 50.24201739 35.95451784 48.3125 39.3046875 C47.7040625 40.35527344 47.095625 41.40585938 46.46875 42.48828125 C45.8396875 43.58527344 45.210625 44.68226563 44.5625 45.8125 C43.31266639 47.9766586 42.06267207 50.1407244 40.8125 52.3046875 C40.26078125 53.26487793 39.7090625 54.22506836 39.140625 55.21435547 C38.61984375 56.11299316 38.0990625 57.01163086 37.5625 57.9375 C37.04171875 58.85805176 36.5209375 59.77860352 35.984375 60.72705078 C34.13922855 63.59551849 33.11726438 63.81141719 29.8125 64.5625 C26.5625 63.9375 26.5625 63.9375 25.15673828 62.29223633 C24.69509277 61.56286865 24.23344727 60.83350098 23.7578125 60.08203125 C23.23896484 59.26508789 22.72011719 58.44814453 22.18554688 57.60644531 C19.45048893 53.10890419 16.79146638 48.57462241 14.1875 44 C13.64222656 43.05576172 13.09695312 42.11152344 12.53515625 41.13867188 C12.02082031 40.23826172 11.50648438 39.33785156 10.9765625 38.41015625 C10.27974365 37.19211304 10.27974365 37.19211304 9.56884766 35.94946289 C8.5625 33.9375 8.5625 33.9375 8.5625 31.9375 C7.5725 31.9375 6.5825 31.9375 5.5625 31.9375 C5.56773682 32.84105225 5.57297363 33.74460449 5.57836914 34.67553711 C5.59537686 38.01701489 5.60793333 41.35844692 5.61743164 44.69995117 C5.62247101 46.14820073 5.62930253 47.59644517 5.63793945 49.04467773 C5.65002247 51.12224588 5.65573211 53.19974697 5.66015625 55.27734375 C5.66539307 56.52894287 5.67062988 57.78054199 5.67602539 59.07006836 C5.5625 61.9375 5.5625 61.9375 4.5625 62.9375 C2.70962498 63.00976502 0.85416122 63.0213122 -1 63 C-2.01191406 62.99097656 -3.02382812 62.98195312 -4.06640625 62.97265625 C-5.24009766 62.95525391 -5.24009766 62.95525391 -6.4375 62.9375 C-7.69972207 60.41305587 -7.57130313 58.65830928 -7.58276367 55.83276367 C-7.58914352 54.76793259 -7.59552338 53.7031015 -7.60209656 52.60600281 C-7.60320938 51.45082657 -7.6043222 50.29565033 -7.60546875 49.10546875 C-7.60879715 47.92157059 -7.61212555 46.73767242 -7.61555481 45.51789856 C-7.62062577 43.00859975 -7.62296308 40.49929417 -7.62280273 37.98999023 C-7.62498498 34.15141651 -7.64312753 30.31313204 -7.66210938 26.47460938 C-7.66504409 24.03906348 -7.66702836 21.60351623 -7.66796875 19.16796875 C-7.67515427 18.0188652 -7.68233978 16.86976166 -7.68974304 15.68583679 C-7.68666641 14.61154922 -7.68358978 13.53726166 -7.68041992 12.43041992 C-7.68184494 11.48825119 -7.68326996 10.54608246 -7.68473816 9.57536316 C-7.41036681 6.64800726 -6.78016811 4.55074749 -5.4375 1.9375 C-2.4375 -0.0625 -2.4375 -0.0625 0 0 Z " fill="#FBFDFD" transform="translate(127.4375,180.0625)"/>
<path d="M0 0 C0.89680481 0.00045822 1.79360962 0.00091644 2.71759033 0.00138855 C4.60356986 0.00439785 6.4895472 0.01224433 8.37548828 0.0246582 C11.26994564 0.04299612 14.16408416 0.04516713 17.05859375 0.04492188 C18.89323195 0.04983455 20.72786797 0.05566177 22.5625 0.0625 C23.86402008 0.06416924 23.86402008 0.06416924 25.1918335 0.06587219 C31.28342889 0.11437069 31.28342889 0.11437069 33.515625 1.23046875 C33.640625 8.98046875 33.640625 8.98046875 32.515625 11.23046875 C31.28932373 11.23981445 30.06302246 11.24916016 28.79956055 11.25878906 C24.25377957 11.29863339 19.70867938 11.36437631 15.16333008 11.43798828 C13.19532002 11.46623024 11.22719585 11.48742869 9.2590332 11.50146484 C6.4312077 11.52284996 3.60475885 11.56947615 0.77734375 11.62109375 C-0.54466789 11.62293671 -0.54466789 11.62293671 -1.89338684 11.62481689 C-6.65916557 11.6271414 -6.65916557 11.6271414 -10.53979492 14.07714844 C-11.82077595 16.99734815 -11.88691657 19.07722646 -11.484375 22.23046875 C-9.63094725 24.78996421 -8.54681107 25.20965673 -5.484375 26.23046875 C-3.14853131 26.32385182 -0.81034901 26.36222373 1.52734375 26.37109375 C2.93946911 26.38943291 4.3515789 26.40900423 5.76367188 26.4296875 C7.97772346 26.45853986 10.19077808 26.48046601 12.4050293 26.48095703 C28.56441751 26.50630509 28.56441751 26.50630509 34.515625 32.23046875 C38.67968728 37.33144505 39.20623015 41.75610153 38.9609375 48.2890625 C38.28660244 52.74322302 36.76346858 56.08969694 33.515625 59.23046875 C27.35743192 63.67712611 22.35174337 63.76666961 14.89453125 63.62109375 C13.79463364 63.61543396 12.69473602 63.60977417 11.56150818 63.60394287 C8.06659461 63.58164618 4.57272597 63.53146024 1.078125 63.48046875 C-1.29881326 63.46039517 -3.67576768 63.44214591 -6.05273438 63.42578125 C-11.86368065 63.38180303 -17.67385097 63.31282014 -23.484375 63.23046875 C-23.484375 59.93046875 -23.484375 56.63046875 -23.484375 53.23046875 C-22.10660889 53.2054126 -20.72884277 53.18035645 -19.30932617 53.15454102 C-14.20473697 53.06047281 -9.10028404 52.96025058 -3.99584961 52.8581543 C-1.78527002 52.81480323 0.42534309 52.77312829 2.63598633 52.7331543 C5.81081249 52.67545609 8.98546986 52.61176013 12.16015625 52.546875 C13.15086624 52.53016251 14.14157623 52.51345001 15.16230774 52.49623108 C16.08303574 52.47628586 17.00376373 52.45634064 17.95239258 52.43579102 C18.7629158 52.42024673 19.57343903 52.40470245 20.40852356 52.38868713 C22.70709183 52.30237154 22.70709183 52.30237154 25.515625 51.23046875 C25.62446619 49.81553324 25.70160117 48.39813932 25.765625 46.98046875 C25.81203125 46.1915625 25.8584375 45.40265625 25.90625 44.58984375 C25.35478213 41.25897779 24.17371679 40.28350333 21.515625 38.23046875 C18.06828078 37.66809046 18.06828078 37.66809046 14.1875 37.796875 C12.73307189 37.7872631 11.27864483 37.77749239 9.82421875 37.76757812 C7.54886401 37.77614313 5.27379571 37.79288868 2.99853516 37.81518555 C-13.7061509 37.92601716 -13.7061509 37.92601716 -19.484375 32.23046875 C-23.75500109 26.75530709 -25.17290383 22.14125811 -24.484375 15.23046875 C-22.79800297 9.79660331 -20.15607639 5.51796232 -15.484375 2.23046875 C-10.25439902 0.02069113 -5.57299197 -0.04658633 0 0 Z " fill="#FCFDFD" transform="translate(330.484375,179.76953125)"/>
<path d="M0 0 C1.0280928 -0.00960754 2.05618561 -0.01921509 3.11543274 -0.02911377 C4.23515976 -0.03336365 5.35488678 -0.03761353 6.50854492 -0.04199219 C7.65183762 -0.04769226 8.79513031 -0.05339233 9.97306824 -0.05926514 C12.39837717 -0.06873298 14.82369907 -0.07525616 17.24902344 -0.07910156 C20.96271221 -0.08879851 24.67584579 -0.11980231 28.3894043 -0.15136719 C30.74161454 -0.15789768 33.09382876 -0.16314797 35.44604492 -0.16699219 C36.55969925 -0.17933899 37.67335358 -0.19168579 38.820755 -0.20440674 C39.85830429 -0.20140564 40.89585358 -0.19840454 41.96484375 -0.1953125 C42.87671951 -0.19895813 43.78859528 -0.20260376 44.72810364 -0.20635986 C47.62233889 0.22804869 49.00689907 1.24621683 51.17651367 3.16113281 C50.78615456 8.82133994 49.6598551 11.40320285 45.67651367 15.41113281 C42.15169469 19.07634288 38.79601381 22.75595363 35.61401367 26.72363281 C31.3173234 32.04334458 26.77930285 37.10643342 22.17651367 42.16113281 C20.83769559 43.63533699 19.50390011 45.11412716 18.17651367 46.59863281 C17.61963867 47.21609375 17.06276367 47.83355469 16.48901367 48.46972656 C14.96624084 50.23901199 14.96624084 50.23901199 14.17651367 53.16113281 C15.80447876 53.15327759 15.80447876 53.15327759 17.46533203 53.14526367 C21.47769349 53.12721445 25.49005134 53.1157011 29.50244141 53.10620117 C31.24170535 53.10116077 32.98096503 53.09432851 34.72021484 53.08569336 C37.21477304 53.07361489 39.70927541 53.06790173 42.20385742 53.06347656 C42.98615219 53.05831528 43.76844696 53.05315399 44.57444763 53.0478363 C46.44218482 53.04764055 48.30980571 53.09913587 50.17651367 53.16113281 C51.17651367 54.16113281 51.17651367 54.16113281 51.27416992 56.22753906 C51.26256836 57.05125 51.2509668 57.87496094 51.23901367 58.72363281 C51.22999023 59.54992187 51.2209668 60.37621094 51.21166992 61.22753906 C51.20006836 61.865625 51.1884668 62.50371094 51.17651367 63.16113281 C43.39871308 63.26237502 35.62108175 63.33253189 27.84277344 63.38085938 C25.19557343 63.40100129 22.54841804 63.42831637 19.90136719 63.46289062 C16.10104372 63.51129332 12.30130736 63.53407611 8.50073242 63.55175781 C6.71937141 63.58272552 6.71937141 63.58272552 4.90202332 63.61431885 C3.80110855 63.61462097 2.70019379 63.6149231 1.56591797 63.61523438 C0.59551071 63.62411682 -0.37489655 63.63299927 -1.37471008 63.64215088 C-3.82348633 63.16113281 -3.82348633 63.16113281 -5.65861511 61.27874756 C-6.82348633 59.16113281 -6.82348633 59.16113281 -6.85083008 56.82519531 C-5.41747439 53.10828056 -3.01483646 50.45541904 -0.38598633 47.53613281 C0.15388916 46.9214917 0.69376465 46.30685059 1.25 45.67358398 C5.36773891 41.00382716 9.57799996 36.4178281 13.78979492 31.83300781 C17.04917928 28.18420437 20.11697821 24.3943885 23.16870117 20.57128906 C25.17651367 18.16113281 25.17651367 18.16113281 27.37182617 16.03222656 C29.40538857 14.19281585 29.40538857 14.19281585 30.17651367 11.16113281 C18.29651367 11.16113281 6.41651367 11.16113281 -5.82348633 11.16113281 C-5.82348633 0.04371992 -5.82348633 0.04371992 0 0 Z " fill="#FCFDFD" transform="translate(228.823486328125,179.8388671875)"/>
<path d="M0 0 C0.99 0.495 0.99 0.495 2 1 C-2.95110116 5.21760469 -7.75833826 5.12665785 -14.08520508 5.20532227 C-14.77843872 5.21522186 -15.47167236 5.22512146 -16.18591309 5.23532104 C-18.46375177 5.26675875 -20.74161127 5.29162284 -23.01953125 5.31640625 C-24.60422794 5.33699112 -26.18891933 5.35798799 -27.77360535 5.37937927 C-31.93443495 5.43444171 -36.09531279 5.48392045 -40.25622559 5.53222656 C-44.50614694 5.58255752 -48.75599866 5.63818293 -53.00585938 5.69335938 C-61.33718062 5.80074721 -69.66856031 5.90223479 -78 6 C-78.33 9.3 -78.66 12.6 -79 16 C-79.33 16 -79.66 16 -80 16 C-80 13.03 -80 10.06 -80 7 C-83.856147 6.03596325 -86.89270652 5.86084923 -90.84814453 5.83886719 C-91.52826599 5.83390228 -92.20838745 5.82893738 -92.90911865 5.82382202 C-95.15036032 5.8092605 -97.39153138 5.80241107 -99.6328125 5.796875 C-101.19172161 5.79112178 -102.75063071 5.78536407 -104.30953979 5.77960205 C-107.57273691 5.76911144 -110.8359095 5.76325504 -114.09912109 5.75976562 C-118.28701724 5.75426274 -122.47459123 5.73018883 -126.66238594 5.70179367 C-129.87935349 5.68320996 -133.09624242 5.67796415 -136.31325912 5.67642975 C-137.85788625 5.67339667 -139.40251179 5.66534616 -140.94708633 5.65224457 C-143.1018598 5.63526078 -145.25583201 5.637044 -147.41064453 5.64355469 C-149.25119919 5.63808624 -149.25119919 5.63808624 -151.12893677 5.63250732 C-152.07638763 5.75377991 -153.0238385 5.87505249 -154 6 C-154.99 7.485 -154.99 7.485 -156 9 C-157.1446875 8.0409375 -157.1446875 8.0409375 -158.3125 7.0625 C-162.73944307 4.04364485 -167.79735295 4.18514758 -173 4 C-173 3.67 -173 3.34 -173 3 C-171.9866861 3.00222061 -170.97337219 3.00444122 -169.92935181 3.00672913 C-126.23122487 3.09927884 -82.53179481 3.1782564 -38.83599091 2.65256882 C-36.43855272 2.6250121 -34.04110358 2.60119212 -31.64361572 2.57839966 C-27.90657026 2.54229994 -24.16978281 2.49630406 -20.4329586 2.44199944 C-18.4381106 2.41497054 -16.44314803 2.39685211 -14.44819641 2.37904358 C-13.26702744 2.35917892 -12.08585846 2.33931427 -10.86889648 2.31884766 C-9.84892075 2.30552399 -8.82894501 2.29220032 -7.77806091 2.2784729 C-4.86178833 1.98614566 -2.69634902 1.09560757 0 0 Z " fill="#D5E0E6" transform="translate(277,147)"/>
<path d="M0 0 C9.6896279 9.6896279 2.64875126 27.30129925 3 41 C58.11 41.33 113.22 41.66 170 42 C170 42.33 170 42.66 170 43 C148.13008507 43.06999972 126.26018853 43.12294377 104.3901844 43.15543652 C94.23615912 43.1709227 84.08220334 43.19204557 73.92822266 43.22631836 C65.08071913 43.25616722 56.23326593 43.27556225 47.38571346 43.28226548 C42.69853735 43.28618542 38.01150523 43.29543393 33.32437515 43.31719017 C28.91674885 43.33748415 24.50932645 43.34384826 20.10165787 43.33932304 C18.48025404 43.34015144 16.85884372 43.34615921 15.23748016 43.35761642 C13.03087879 43.37245018 10.82505653 43.36898776 8.61843872 43.36076355 C6.76286944 43.36491162 6.76286944 43.36491162 4.86981392 43.36914349 C3.44925603 43.18641746 3.44925603 43.18641746 2 43 C-0.50442112 39.24336832 -0.34885437 36.18991875 -0.4140625 31.83203125 C-0.43342865 31.03721848 -0.4527948 30.2424057 -0.4727478 29.42350769 C-0.53249442 26.88661405 -0.57890883 24.34967491 -0.625 21.8125 C-0.66318435 20.09177716 -0.70223635 18.37107335 -0.7421875 16.65039062 C-0.83819179 12.43374835 -0.92224076 8.2170166 -1 4 C-1.99 4.99 -2.98 5.98 -4 7 C-4.66 6.67 -5.32 6.34 -6 6 C-4.02 4.02 -2.04 2.04 0 0 Z " fill="#F4F8FA" transform="translate(101,247)"/>
<path d="M0 0 C1.32 0.33 2.64 0.66 4 1 C3.34 1 2.68 1 2 1 C2 14.2 2 27.4 2 41 C13.88 40.67 25.76 40.34 38 40 C38 36.7 38 33.4 38 30 C38.99 30.66 39.98 31.32 41 32 C41.328125 33.875 41.328125 33.875 41.25 36 C41.23453125 36.70125 41.2190625 37.4025 41.203125 38.125 C41 40 41 40 40 42 C34.46411467 42.02464775 28.928261 42.04283496 23.39233398 42.05493164 C21.5075627 42.05997244 19.62279535 42.06680498 17.73803711 42.07543945 C15.03498364 42.08751617 12.33198169 42.09323068 9.62890625 42.09765625 C8.78099014 42.10281754 7.93307404 42.10797882 7.0594635 42.11329651 C5.03928932 42.11349195 3.01922066 42.06206211 1 42 C0 41 0 41 -0.11352539 37.12280273 C-0.11336621 35.39305833 -0.10766849 33.66330919 -0.09765625 31.93359375 C-0.0962413 31.02497086 -0.09482635 30.11634796 -0.09336853 29.18019104 C-0.08775193 26.26592779 -0.07519665 23.35174019 -0.0625 20.4375 C-0.05748714 18.46679798 -0.05292386 16.49609476 -0.04882812 14.52539062 C-0.03777711 9.68356441 -0.02050138 4.84179505 0 0 Z " fill="#D4DFE5" transform="translate(40,191)"/>
<path d="M0 0 C0.99 0 1.98 0 3 0 C3 11.55 3 23.1 3 35 C2.67 35 2.34 35 2 35 C2 24.44 2 13.88 2 3 C0.02 3.99 0.02 3.99 -2 5 C-1.34 3.35 -0.68 1.7 0 0 Z " fill="#E5EEF2" transform="translate(180,208)"/>
<path d="M0 0 C1.485 0.99 1.485 0.99 3 2 C3.36328125 3.875 3.36328125 3.875 3.3125 6 C3.30863281 6.70125 3.30476563 7.4025 3.30078125 8.125 C3 10 3 10 1 12 C-0.26237731 9.47524538 -0.09856404 7.68799534 -0.0625 4.875 C-0.05347656 3.96492187 -0.04445313 3.05484375 -0.03515625 2.1171875 C-0.02355469 1.41851562 -0.01195313 0.71984375 0 0 Z " fill="#DFE8ED" transform="translate(78,221)"/>
</svg>
